<?xml version="1.0" encoding="iso-8859-1"?>
<!-- Generator: Adobe Illustrator 18.0.0, SVG Export Plug-In . SVG Version: 6.00 Build 0)  -->
<!DOCTYPE svg PUBLIC "-//W3C//DTD SVG 1.1//EN" "http://www.w3.org/Graphics/SVG/1.1/DTD/svg11.dtd">
<svg version="1.1" id="Capa_1" xmlns="http://www.w3.org/2000/svg" xmlns:xlink="http://www.w3.org/1999/xlink" x="0px" y="0px"
	 viewBox="0 0 410.986 410.986" style="enable-background:new 0 0 410.986 410.986;" xml:space="preserve">
<g>
	<path d="M6,42.462c10.137,0,14.88,4.342,20.885,9.838c6.65,6.088,14.188,12.988,28.989,12.988c14.799,0,22.337-6.9,28.987-12.988
		c6.005-5.496,10.748-9.838,20.884-9.838c10.135,0,14.878,4.342,20.882,9.838c6.649,6.088,14.186,12.988,28.984,12.988
		c14.8,0,22.337-6.9,28.988-12.988c6.005-5.496,10.748-9.838,20.884-9.838c10.137,0,14.88,4.342,20.886,9.838
		c6.649,6.088,14.187,12.988,28.987,12.988c14.8,0,22.338-6.9,28.988-12.988c6.006-5.496,10.749-9.838,20.887-9.838
		c10.138,0,14.881,4.342,20.887,9.838c6.65,6.088,14.188,12.988,28.987,12.988c14.802,0,22.34-6.9,28.991-12.988
		c6.007-5.496,10.751-9.838,20.89-9.838c3.313,0,6-2.688,6-6c0-3.314-2.687-6-6-6c-14.802,0-22.34,6.898-28.991,12.986
		c-6.007,5.498-10.751,9.84-20.89,9.84c-10.137,0-14.88-4.342-20.886-9.84c-6.65-6.088-14.188-12.986-28.988-12.986
		c-14.8,0-22.338,6.898-28.988,12.986c-6.006,5.498-10.749,9.84-20.887,9.84c-10.137,0-14.88-4.342-20.886-9.84
		c-6.649-6.088-14.187-12.986-28.987-12.986c-14.799,0-22.336,6.898-28.987,12.986c-6.005,5.498-10.749,9.84-20.885,9.84
		c-10.134,0-14.877-4.342-20.881-9.84c-6.65-6.086-14.187-12.986-28.985-12.986c-14.799,0-22.337,6.898-28.987,12.986
		c-6.005,5.498-10.748,9.84-20.884,9.84c-10.138,0-14.881-4.342-20.886-9.84C28.337,37.36,20.8,30.462,6,30.462
		c-3.313,0-6,2.686-6,6C0,39.774,2.687,42.462,6,42.462z"/>
	<path d="M404.986,82.462c-14.802,0-22.34,6.898-28.991,12.986c-6.007,5.498-10.751,9.84-20.89,9.84
		c-10.137,0-14.88-4.342-20.886-9.84c-6.65-6.088-14.188-12.986-28.988-12.986c-14.8,0-22.338,6.898-28.988,12.986
		c-6.006,5.498-10.749,9.84-20.887,9.84c-10.137,0-14.88-4.342-20.886-9.84c-6.649-6.088-14.187-12.986-28.987-12.986
		c-14.799,0-22.336,6.898-28.987,12.986c-6.005,5.498-10.749,9.84-20.885,9.84c-10.134,0-14.877-4.342-20.881-9.84
		c-6.65-6.086-14.187-12.986-28.985-12.986c-14.799,0-22.337,6.898-28.987,12.986c-6.005,5.498-10.748,9.84-20.884,9.84
		c-10.138,0-14.881-4.342-20.886-9.84C28.337,89.36,20.8,82.462,6,82.462c-3.313,0-6,2.686-6,6c0,3.313,2.687,6,6,6
		c10.137,0,14.88,4.342,20.885,9.838c6.65,6.088,14.188,12.988,28.989,12.988c14.799,0,22.337-6.9,28.987-12.988
		c6.005-5.496,10.748-9.838,20.884-9.838c10.135,0,14.878,4.342,20.882,9.838c6.649,6.088,14.186,12.988,28.984,12.988
		c14.8,0,22.337-6.9,28.988-12.988c6.005-5.496,10.748-9.838,20.884-9.838c10.137,0,14.88,4.342,20.886,9.838
		c6.649,6.088,14.187,12.988,28.987,12.988c14.8,0,22.338-6.9,28.988-12.988c6.006-5.496,10.749-9.838,20.887-9.838
		c10.138,0,14.881,4.342,20.887,9.838c6.65,6.088,14.188,12.988,28.987,12.988c14.802,0,22.34-6.9,28.991-12.988
		c6.007-5.496,10.751-9.838,20.89-9.838c3.313,0,6-2.688,6-6C410.986,85.147,408.3,82.462,404.986,82.462z"/>
	<path d="M404.986,345.7c-14.802,0-22.34,6.898-28.991,12.986c-6.007,5.496-10.751,9.838-20.89,9.838
		c-10.137,0-14.88-4.342-20.886-9.838c-6.65-6.088-14.189-12.986-28.988-12.986c-14.8,0-22.338,6.898-28.988,12.986
		c-6.006,5.496-10.749,9.838-20.887,9.838c-10.137,0-14.88-4.342-20.886-9.838c-6.65-6.088-14.187-12.986-28.987-12.986
		c-14.799,0-22.336,6.898-28.987,12.986c-6.005,5.496-10.748,9.838-20.885,9.838c-10.135,0-14.877-4.342-20.881-9.838
		c-6.65-6.088-14.187-12.986-28.985-12.986c-14.799,0-22.337,6.898-28.987,12.986c-6.005,5.496-10.748,9.838-20.884,9.838
		c-10.138,0-14.881-4.342-20.886-9.838C28.337,352.599,20.799,345.7,6,345.7c-3.313,0-6,2.686-6,6c0,3.313,2.687,6,6,6
		c10.137,0,14.88,4.342,20.885,9.838c6.651,6.088,14.188,12.986,28.989,12.986c14.799,0,22.337-6.898,28.987-12.986
		c6.005-5.496,10.748-9.838,20.884-9.838c10.135,0,14.878,4.342,20.882,9.838c6.649,6.088,14.186,12.986,28.984,12.986
		c14.8,0,22.337-6.898,28.988-12.986c6.005-5.496,10.748-9.838,20.884-9.838c10.137,0,14.88,4.342,20.886,9.838
		c6.65,6.088,14.187,12.986,28.987,12.986c14.8,0,22.338-6.898,28.988-12.986c6.006-5.496,10.749-9.838,20.887-9.838
		c10.138,0,14.881,4.342,20.887,9.838c6.65,6.088,14.188,12.986,28.987,12.986c14.802,0,22.34-6.898,28.991-12.986
		c6.007-5.496,10.751-9.838,20.89-9.838c3.313,0,6-2.688,6-6C410.986,348.386,408.3,345.7,404.986,345.7z"/>
	<path d="M355.106,169.288c14.802,0,22.34-6.9,28.991-12.986c6.007-5.498,10.751-9.84,20.89-9.84c3.313,0,6-2.686,6-6
		c0-3.313-2.687-6-6-6c-14.802,0-22.34,6.9-28.991,12.986c-6.007,5.498-10.751,9.84-20.89,9.84c-3.432,0-6.236-0.508-8.69-1.379
		V129.62c0-3.313-2.687-6-6-6h-176.2c-3.313,0-6,2.688-6,6v27.553c-0.832,0.068-1.689,0.115-2.604,0.115
		c-10.135,0-14.877-4.342-20.881-9.838c-6.65-6.088-14.187-12.988-28.985-12.988c-14.799,0-22.337,6.9-28.987,12.988
		c-6.005,5.496-10.748,9.838-20.884,9.838c-10.138,0-14.881-4.342-20.886-9.84c-6.65-6.086-14.188-12.986-28.988-12.986
		c-3.313,0-6,2.688-6,6c0,3.314,2.687,6,6,6c10.137,0,14.88,4.342,20.885,9.838c6.651,6.088,14.188,12.988,28.989,12.988
		c14.799,0,22.337-6.9,28.987-12.988c6.005-5.496,10.748-9.838,20.884-9.838c10.135,0,14.878,4.342,20.882,9.838
		c6.649,6.088,14.186,12.988,28.984,12.988c0.895,0,1.76-0.027,2.604-0.076v43.496H6.226c-3.313,0-6,2.688-6,6v22.551
		c0,3.313,2.686,6,6,6h22.909l37.551,67.016c-2.938,1.408-6.353,2.25-10.812,2.25c-10.138,0-14.881-4.342-20.886-9.838
		C28.337,300.599,20.799,293.7,6,293.7c-3.313,0-6,2.686-6,6c0,3.313,2.687,6,6,6c10.137,0,14.88,4.342,20.885,9.838
		c6.651,6.088,14.188,12.986,28.989,12.986c14.799,0,22.337-6.898,28.987-12.986c6.005-5.496,10.748-9.838,20.884-9.838
		c10.135,0,14.878,4.342,20.882,9.838c6.649,6.088,14.186,12.986,28.984,12.986c14.8,0,22.337-6.898,28.988-12.986
		c6.005-5.496,10.748-9.838,20.884-9.838c10.137,0,14.88,4.342,20.886,9.838c6.65,6.088,14.187,12.986,28.987,12.986
		c14.8,0,22.338-6.898,28.988-12.986c6.006-5.496,10.749-9.838,20.887-9.838c10.138,0,14.881,4.342,20.887,9.838
		c6.65,6.088,14.188,12.986,28.987,12.986c14.802,0,22.34-6.898,28.991-12.986c6.007-5.496,10.751-9.838,20.89-9.838
		c3.313,0,6-2.688,6-6c0-3.314-2.687-6-6-6c-8.662,0-14.827,2.369-19.792,5.549l-0.144-51.99h9.675c3.314,0,6-2.688,6-6v-22.551
		c0-3.313-2.686-6-6-6h-48.31V168.38C349.014,168.954,351.884,169.288,355.106,169.288z M373.222,309.183
		c-4.863,4.258-9.576,7.342-18.116,7.342c-10.137,0-14.88-4.342-20.886-9.838c-6.65-6.088-14.189-12.986-28.988-12.986
		c-14.8,0-22.338,6.898-28.988,12.986c-6.006,5.496-10.749,9.838-20.887,9.838c-10.137,0-14.88-4.342-20.886-9.838
		c-6.65-6.088-14.187-12.986-28.987-12.986c-14.799,0-22.336,6.898-28.987,12.986c-6.005,5.496-10.748,9.838-20.885,9.838
		c-10.135,0-14.877-4.342-20.881-9.838c-6.65-6.088-14.187-12.986-28.985-12.986c-14.799,0-22.337,6.898-28.987,12.986
		c-0.127,0.117-0.25,0.229-0.376,0.344L42.89,247.259h330.161L373.222,309.183z M388.726,235.259h-376.5v-10.551h376.5V235.259z
		 M289.146,142.612c17.199,0,31.143,13.943,31.143,31.143s-13.943,31.143-31.143,31.143c-17.199,0-31.142-13.943-31.142-31.143
		S271.946,142.612,289.146,142.612z"/>
</g>
<g>
</g>
<g>
</g>
<g>
</g>
<g>
</g>
<g>
</g>
<g>
</g>
<g>
</g>
<g>
</g>
<g>
</g>
<g>
</g>
<g>
</g>
<g>
</g>
<g>
</g>
<g>
</g>
<g>
</g>
</svg>
